<svg xmlns="http://www.w3.org/2000/svg" width="1280" height="520" viewBox="0 0 1280 520" role="img" aria-label="Installer and validation flow">
  <rect width="1280" height="520" fill="#070b14"/>
  <g font-family="Segoe UI, sans-serif">
    <text x="80" y="78" fill="#f2f6ff" font-size="36" font-weight="800">Safe install flow</text>
    <text x="80" y="120" fill="#b9c7e6" font-size="21">Back up first, validate always, merge Terminal settings only when requested.</text>
  </g>
  <g font-family="Cascadia Mono, Fira Code, Consolas, monospace" font-size="20">
    <rect x="80" y="190" width="230" height="150" rx="18" fill="#101827" stroke="#63f3ff" stroke-width="2"/>
    <text x="112" y="242" fill="#63f3ff" font-weight="700">check.ps1</text>
    <text x="112" y="284" fill="#f2f6ff">parse scripts</text>
    <text x="112" y="316" fill="#f2f6ff">validate JSON</text>
    <rect x="370" y="190" width="230" height="150" rx="18" fill="#101827" stroke="#ffd166" stroke-width="2"/>
    <text x="402" y="242" fill="#ffd166" font-weight="700">install.ps1</text>
    <text x="402" y="284" fill="#f2f6ff">backup profile</text>
    <text x="402" y="316" fill="#f2f6ff">copy theme/data</text>
    <rect x="660" y="190" width="260" height="150" rx="18" fill="#101827" stroke="#ff4dff" stroke-width="2"/>
    <text x="692" y="232" fill="#ff4dff" font-size="18" font-weight="700">optional terminal</text>
    <text x="692" y="260" fill="#ff4dff" font-size="18" font-weight="700">merge</text>
    <text x="692" y="298" fill="#f2f6ff">backup settings</text>
    <text x="692" y="326" fill="#f2f6ff">validate JSON</text>
    <rect x="980" y="190" width="220" height="150" rx="18" fill="#101827" stroke="#67ff9a" stroke-width="2"/>
    <text x="1012" y="242" fill="#67ff9a" font-weight="700">test-profile</text>
    <text x="1012" y="284" fill="#f2f6ff">smoke test</text>
    <text x="1012" y="316" fill="#f2f6ff">temp folder</text>
    <path d="M318 265 L358 265" stroke="#63f3ff" stroke-width="4"/>
    <path d="M608 265 L648 265" stroke="#ffd166" stroke-width="4"/>
    <path d="M928 265 L968 265" stroke="#ff4dff" stroke-width="4"/>
  </g>
</svg>


