<svg xmlns="http://www.w3.org/2000/svg" width="1280" height="720" viewBox="0 0 1280 720" role="img" aria-label="Cyberpunk PowerShell terminal showcase">
  <defs>
    <linearGradient id="bg" x1="0" y1="0" x2="1" y2="1">
      <stop offset="0%" stop-color="#07111f"/>
      <stop offset="55%" stop-color="#080b14"/>
      <stop offset="100%" stop-color="#111827"/>
    </linearGradient>
    <radialGradient id="glowCyan" cx="25%" cy="20%" r="70%">
      <stop offset="0%" stop-color="#00e5ff" stop-opacity="0.35"/>
      <stop offset="55%" stop-color="#00e5ff" stop-opacity="0.06"/>
      <stop offset="100%" stop-color="#00e5ff" stop-opacity="0"/>
    </radialGradient>
    <radialGradient id="glowMagenta" cx="90%" cy="8%" r="55%">
      <stop offset="0%" stop-color="#d600ff" stop-opacity="0.35"/>
      <stop offset="65%" stop-color="#ff3f66" stop-opacity="0.08"/>
      <stop offset="100%" stop-color="#d600ff" stop-opacity="0"/>
    </radialGradient>
    <filter id="softGlow">
      <feGaussianBlur stdDeviation="4" result="blur"/>
      <feMerge>
        <feMergeNode in="blur"/>
        <feMergeNode in="SourceGraphic"/>
      </feMerge>
    </filter>
  </defs>
  <rect width="1280" height="720" fill="url(#bg)"/>
  <rect width="1280" height="720" fill="url(#glowCyan)"/>
  <rect width="1280" height="720" fill="url(#glowMagenta)"/>
  <g opacity="0.25" stroke="#63f3ff" stroke-width="1">
    <path d="M0 650 C230 600 360 720 610 655 S980 590 1280 650" fill="none"/>
    <path d="M0 676 C260 620 380 740 650 680 S990 620 1280 675" fill="none"/>
  </g>
  <rect x="52" y="44" width="1176" height="632" rx="22" fill="#070b14" stroke="#26324f" stroke-width="2"/>
  <rect x="52" y="44" width="1176" height="58" rx="22" fill="#101827"/>
  <rect x="52" y="83" width="1176" height="19" fill="#101827"/>
  <rect x="74" y="58" width="214" height="34" rx="10" fill="#d100b9" filter="url(#softGlow)"/>
  <text x="96" y="81" fill="#f2f6ff" font-size="18" font-family="Segoe UI, sans-serif" font-weight="700">dev</text>
  <text x="1132" y="82" fill="#b9c7e6" font-size="24" font-family="Segoe UI, sans-serif">-  □  ×</text>
  <g font-family="Cascadia Mono, Fira Code, Consolas, monospace" font-size="24">
    <text x="82" y="146" fill="#63f3ff">dev</text>
    <rect x="178" y="120" width="92" height="36" rx="6" fill="#242d4a"/>
    <text x="198" y="146" fill="#f2f6ff">~</text>
    <text x="288" y="146" fill="#ffd166">ls</text>
    <text x="82" y="205" fill="#63f3ff">Directory: C:\Users\dev</text>
    <text x="82" y="265" fill="#ff4dff">Mode</text>
    <text x="262" y="265" fill="#55a8ff">LastWriteTime</text>
    <text x="548" y="265" fill="#ffd166">Length</text>
    <text x="704" y="265" fill="#67ff9a">Name</text>
    <line x1="82" y1="283" x2="123" y2="283" stroke="#ff4dff" stroke-width="2"/>
    <line x1="262" y1="283" x2="420" y2="283" stroke="#55a8ff" stroke-width="2"/>
    <line x1="548" y1="283" x2="626" y2="283" stroke="#ffd166" stroke-width="2"/>
    <line x1="704" y1="283" x2="754" y2="283" stroke="#67ff9a" stroke-width="2"/>
    <text x="82" y="330" fill="#ff4dff">d----</text><text x="262" y="330" fill="#55a8ff">23/05/2026 18:02</text><text x="704" y="330" fill="#00e5ff">■ .vscode</text>
    <text x="82" y="370" fill="#ff4dff">d----</text><text x="262" y="370" fill="#55a8ff">23/05/2026 18:02</text><text x="704" y="370" fill="#ffd166">■ node_modules</text>
    <text x="82" y="410" fill="#ff4dff">d----</text><text x="262" y="410" fill="#55a8ff">23/05/2026 18:02</text><text x="704" y="410" fill="#67ff9a">■ src</text>
    <text x="82" y="450" fill="#ff4dff">-a---</text><text x="262" y="450" fill="#55a8ff">23/05/2026 18:02</text><text x="548" y="450" fill="#ffd166">  258</text><text x="704" y="450" fill="#ffd166">{} package.json</text>
    <text x="82" y="490" fill="#ff4dff">-a---</text><text x="262" y="490" fill="#55a8ff">23/05/2026 18:02</text><text x="548" y="490" fill="#ffd166"> 4.1K</text><text x="704" y="490" fill="#55a8ff">TS app.tsx</text>
    <text x="82" y="530" fill="#ff4dff">-a---</text><text x="262" y="530" fill="#55a8ff">23/05/2026 18:02</text><text x="548" y="530" fill="#ffd166"> 1.2K</text><text x="704" y="530" fill="#ff4d6d">PDF manual.pdf</text>
    <rect x="82" y="595" width="104" height="34" rx="17" fill="#63f3ff" filter="url(#softGlow)"/>
    <text x="104" y="619" fill="#0b1020" font-weight="700">dev</text>
    <text x="204" y="619" fill="#63f3ff">❯</text>
    <rect x="1004" y="595" width="174" height="34" rx="17" fill="#00e5ff" filter="url(#softGlow)"/>
    <text x="1032" y="619" fill="#0b1020" font-weight="700">18:02:42</text>
  </g>
</svg>


